<?xml version="1.0" encoding="UTF-8" ?>
<!DOCTYPE svg PUBLIC "-//W3C//DTD SVG 1.1//EN" "http://www.w3.org/Graphics/SVG/1.1/DTD/svg11.dtd">
<svg width="600pt" height="396pt" viewBox="0 0 600 396" version="1.1" xmlns="http://www.w3.org/2000/svg">
<g id="#ffffffff">
<path fill="#ffffff" opacity="1.00" d=" M 388.08 195.39 C 390.28 192.29 393.08 189.09 396.97 188.26 C 398.32 188.00 399.20 188.58 399.60 189.99 C 396.87 193.37 392.50 195.76 388.08 195.39 Z" />
</g>
<g id="#3a3a3aff">
<path fill="#3a3a3a" opacity="1.00" d=" M 394.80 134.25 C 399.06 134.56 401.82 139.08 401.13 143.09 C 400.29 148.43 397.57 153.24 394.80 157.81 C 389.87 165.16 384.72 172.93 376.98 177.60 C 375.19 176.05 372.57 174.74 372.30 172.12 C 371.57 164.23 374.30 156.61 375.38 148.88 C 366.05 157.85 357.41 167.79 351.23 179.22 C 349.42 182.09 349.36 185.51 349.29 188.79 C 346.80 186.97 344.69 183.64 346.47 180.61 C 349.85 173.39 355.26 167.38 360.43 161.41 C 365.34 156.00 370.28 150.52 376.15 146.13 C 378.10 144.35 380.77 145.39 382.82 146.40 C 381.89 154.74 379.10 162.85 379.16 171.30 C 383.61 169.66 386.12 165.40 388.50 161.59 C 391.69 156.07 394.65 150.28 396.04 144.02 C 396.85 140.71 395.43 137.46 394.80 134.25 Z" />
<path fill="#3a3a3a" opacity="1.00" d=" M 205.07 140.05 C 206.68 138.76 208.65 135.80 210.72 138.02 C 212.18 138.99 211.85 140.89 211.15 142.22 C 204.51 156.97 197.16 171.42 190.92 186.35 C 195.37 181.31 199.16 175.63 204.21 171.14 C 205.21 169.92 206.78 170.57 208.10 170.61 C 207.61 175.74 206.60 180.89 207.08 186.06 C 207.34 187.71 207.58 190.51 209.96 189.94 C 214.10 186.86 215.97 181.75 218.27 177.31 C 219.85 174.82 219.03 171.88 219.24 169.13 C 220.10 167.65 221.89 167.39 223.45 167.42 C 224.70 175.87 225.44 185.06 230.87 192.06 C 233.13 195.13 237.34 196.31 240.88 194.87 C 245.69 193.46 247.81 188.60 250.88 185.13 C 251.38 189.86 249.07 194.50 245.61 197.62 C 241.52 201.31 235.01 200.16 230.84 197.19 C 224.87 192.88 222.29 185.58 220.30 178.80 C 217.93 183.95 215.52 189.40 211.20 193.25 C 208.25 196.20 203.03 194.16 201.61 190.62 C 200.44 187.36 200.75 183.84 200.65 180.45 C 195.46 188.68 189.92 196.78 185.94 205.69 C 184.04 204.24 181.82 202.57 181.66 199.97 C 182.27 196.25 183.91 192.81 185.23 189.31 C 191.50 173.90 198.40 158.76 205.28 143.62 C 196.60 150.94 189.89 160.25 183.69 169.68 C 174.05 184.70 165.90 200.65 159.06 217.13 C 156.58 223.31 154.10 229.55 152.64 236.06 C 151.96 238.83 153.61 241.46 153.55 244.23 C 149.78 246.25 147.01 241.18 146.70 238.05 C 146.96 231.89 148.96 225.94 151.06 220.19 C 157.25 204.39 166.34 189.91 175.99 176.01 C 184.92 163.44 194.36 151.17 205.07 140.05 Z" />
<path fill="#3a3a3a" opacity="1.00" d=" M 442.00 140.00 C 443.96 138.19 446.77 139.21 448.74 140.43 C 444.14 144.87 439.08 148.83 434.66 153.46 C 440.51 154.15 447.31 151.98 452.42 155.66 C 455.00 157.59 453.12 160.61 450.97 161.91 C 451.05 159.79 451.07 157.08 448.61 156.32 C 443.80 154.66 438.56 155.36 433.57 154.80 C 428.54 160.31 423.75 166.99 424.12 174.83 C 428.62 171.97 433.25 168.31 438.83 168.34 C 441.61 169.02 442.57 172.04 443.22 174.48 C 437.31 174.42 432.54 178.38 427.81 181.39 C 430.96 182.17 434.19 181.77 437.37 181.33 C 435.87 183.07 434.37 185.27 431.87 185.53 C 429.36 186.21 427.32 184.36 425.37 183.10 C 420.57 187.34 414.46 192.03 414.22 199.00 C 415.03 207.19 423.87 211.04 426.58 218.35 C 427.77 221.98 425.77 225.66 423.25 228.18 C 417.67 233.80 409.74 236.47 402.00 237.22 C 397.40 237.63 392.19 237.65 388.50 234.42 C 385.07 231.32 382.60 226.21 384.51 221.65 C 385.35 225.47 387.25 229.42 391.22 230.76 C 398.89 233.52 407.48 231.14 414.32 227.21 C 417.85 225.01 421.89 221.60 421.31 216.97 C 419.73 209.38 411.20 205.94 409.34 198.47 C 405.13 202.28 399.83 205.46 393.97 205.32 C 390.38 205.15 386.51 203.55 384.67 200.31 C 383.46 197.39 385.32 194.33 387.11 192.10 C 390.24 188.48 394.96 185.29 399.97 186.33 C 402.13 186.54 403.44 188.40 404.74 189.90 C 401.45 196.15 393.75 199.88 386.87 197.69 C 388.45 202.97 395.23 201.69 399.20 200.26 C 404.13 197.97 409.84 195.22 411.78 189.74 C 414.12 184.42 418.22 180.17 422.45 176.29 C 420.98 168.43 424.72 161.12 428.92 154.79 C 424.90 154.72 420.89 154.95 416.92 155.58 C 419.15 158.19 420.74 161.79 419.18 165.15 C 416.34 170.72 409.85 173.23 404.02 174.19 C 398.90 175.24 393.34 170.27 394.75 165.00 C 396.45 161.36 400.16 159.33 403.62 157.64 C 401.79 157.18 399.98 156.69 398.19 156.13 C 399.02 155.22 399.36 153.14 400.99 153.33 C 410.62 153.28 420.26 153.43 429.89 153.44 C 433.52 148.62 437.27 143.79 442.00 140.00 M 412.84 156.59 C 412.69 157.20 412.40 158.41 412.26 159.02 C 407.10 157.26 400.95 159.53 398.49 164.45 C 397.45 166.27 399.21 168.08 401.00 168.28 C 405.94 169.20 411.02 166.88 414.61 163.57 C 416.62 161.84 417.48 158.86 416.06 156.49 C 415.25 156.51 413.64 156.56 412.84 156.59 M 388.08 195.39 C 392.50 195.76 396.87 193.37 399.60 189.99 C 399.20 188.58 398.32 188.00 396.97 188.26 C 393.08 189.09 390.28 192.29 388.08 195.39 Z" />
<path fill="#3a3a3a" opacity="1.00" d=" M 304.71 143.72 C 307.38 140.52 312.01 139.57 315.90 140.85 C 313.91 143.24 311.01 144.56 308.89 146.82 C 303.54 152.25 298.18 157.71 293.54 163.79 C 298.43 160.54 304.04 157.40 310.14 158.25 C 313.23 158.47 316.60 160.56 316.77 163.93 C 317.32 168.67 313.81 172.61 310.18 175.12 C 304.52 178.92 297.81 181.32 290.98 181.64 C 289.32 181.51 287.08 181.81 286.15 180.09 C 284.48 177.40 281.94 175.10 281.28 171.90 C 282.06 169.96 284.09 169.22 285.87 168.50 C 284.94 169.82 283.95 171.11 282.99 172.41 C 288.31 175.54 294.87 174.73 300.62 173.42 C 305.67 171.96 311.29 169.29 313.23 164.03 C 314.22 160.91 310.39 159.65 307.99 160.15 C 300.87 160.78 293.40 165.07 290.54 171.81 C 287.90 170.30 287.74 166.94 289.28 164.53 C 293.36 156.89 298.94 150.14 304.71 143.72 Z" />
<path fill="#3a3a3a" opacity="1.00" d=" M 236.53 151.41 C 244.13 145.87 253.54 141.37 263.18 143.07 C 268.07 143.70 272.58 147.05 274.10 151.82 C 276.76 159.63 274.34 167.92 272.05 175.49 C 272.21 175.52 272.53 175.56 272.70 175.59 C 276.72 168.04 280.76 160.48 285.29 153.21 C 286.89 150.27 290.71 150.49 293.56 150.83 C 290.96 153.81 287.81 156.30 285.52 159.55 C 280.51 166.50 276.40 174.06 272.89 181.87 C 270.26 187.97 267.42 194.41 268.48 201.23 C 266.27 200.35 263.49 198.82 264.05 195.96 C 265.07 189.91 268.36 184.56 270.92 179.06 C 270.54 178.65 269.80 177.83 269.42 177.43 C 267.04 180.49 264.29 184.44 259.90 184.15 C 254.76 182.06 252.38 176.50 248.84 172.56 C 243.80 176.20 240.28 181.42 235.94 185.79 C 234.68 184.44 232.57 183.15 233.08 180.97 C 234.07 175.58 237.04 170.63 240.69 166.61 C 244.13 162.59 251.28 164.91 252.98 169.54 C 256.52 173.71 260.35 178.50 266.30 178.85 C 267.13 177.36 268.00 175.83 268.04 174.08 C 268.69 167.30 271.71 160.78 271.02 153.88 C 270.44 148.42 265.12 144.67 259.91 144.37 C 251.14 143.98 242.26 147.84 236.68 154.64 C 232.79 159.06 230.62 164.62 229.22 170.27 C 227.50 168.62 224.87 166.83 225.57 164.05 C 227.46 158.63 232.14 154.83 236.53 151.41 M 237.69 179.48 C 241.93 175.58 246.19 171.61 251.34 168.92 C 249.68 168.32 247.87 166.61 246.06 167.81 C 241.80 170.35 239.89 175.27 237.69 179.48 Z" />
<path fill="#3a3a3a" opacity="1.00" d=" M 323.35 161.40 C 326.25 158.23 330.53 156.04 334.89 156.20 C 336.91 156.90 338.66 158.36 339.89 160.10 C 339.42 162.85 336.66 164.24 334.43 165.41 C 330.69 167.38 326.47 168.04 322.31 168.43 C 322.92 170.05 323.25 172.07 325.00 172.89 C 328.44 174.70 332.53 173.37 335.93 172.09 C 342.27 169.39 348.40 165.66 352.76 160.22 C 352.05 158.93 351.35 157.63 350.67 156.32 C 353.00 157.04 356.69 158.82 355.11 161.89 C 352.10 167.48 346.45 171.08 341.07 174.15 C 336.20 176.59 330.55 179.15 325.02 177.58 C 320.94 176.21 319.72 171.41 319.74 167.56 C 319.26 167.18 318.31 166.40 317.83 166.02 C 320.86 166.27 321.62 163.17 323.35 161.40 M 324.35 165.57 C 328.27 163.94 332.55 162.37 335.20 158.85 C 330.92 159.76 327.27 162.40 324.35 165.57 Z" />
<path fill="#3a3a3a" opacity="1.00" d=" M 365.80 174.57 C 367.46 175.92 368.64 177.70 369.09 179.82 C 363.75 185.24 358.76 191.72 357.40 199.38 C 361.35 200.89 364.71 197.90 367.52 195.54 C 371.23 192.24 374.77 188.74 378.01 184.97 C 379.92 182.75 381.09 179.65 383.95 178.43 C 386.08 178.45 387.65 180.15 388.47 181.97 C 388.32 183.86 386.62 185.11 385.52 186.52 C 378.72 193.54 373.58 201.99 369.51 210.84 C 377.80 210.24 386.14 209.79 394.45 210.33 C 400.05 210.89 406.28 212.51 409.73 217.33 C 411.64 220.05 412.96 224.49 409.62 226.71 C 408.76 221.06 402.92 218.94 398.03 218.02 C 387.82 216.13 377.34 216.37 367.04 217.25 C 364.32 224.89 363.76 232.99 364.16 241.03 C 361.03 241.30 359.45 238.07 358.69 235.55 C 357.31 229.53 359.17 223.40 361.02 217.69 C 329.78 221.30 299.67 231.12 270.51 242.56 C 268.30 243.48 265.93 244.15 263.94 245.52 C 261.57 250.41 262.69 255.85 262.37 261.04 C 262.40 262.90 260.54 265.80 258.48 264.42 C 256.61 263.29 255.59 261.04 255.43 258.93 C 255.71 255.01 257.13 251.29 258.17 247.54 C 241.97 254.23 226.10 261.70 209.69 267.87 C 205.10 269.34 200.06 271.71 195.26 269.81 C 192.73 268.76 189.94 266.93 189.51 264.01 C 189.60 260.76 191.57 257.95 193.51 255.49 C 198.91 249.02 205.84 244.03 213.09 239.81 C 209.73 235.05 207.42 229.65 205.97 224.02 C 203.59 230.27 200.89 236.50 196.87 241.88 C 195.59 243.40 194.10 245.25 191.95 245.34 C 189.21 244.80 186.73 242.74 185.97 240.01 C 184.40 235.16 183.50 230.13 182.22 225.21 C 175.85 234.56 171.99 245.30 167.69 255.67 C 163.08 256.19 160.05 249.96 161.39 245.94 C 165.29 232.08 170.26 218.55 174.70 204.85 C 174.60 203.44 174.10 201.96 174.58 200.58 C 178.15 199.08 182.04 203.51 180.05 206.89 C 175.32 219.81 169.32 232.35 166.50 245.89 C 171.69 237.67 176.18 228.91 182.50 221.47 C 184.43 218.57 189.61 220.53 189.64 223.88 C 190.68 229.32 191.34 234.85 193.04 240.14 C 194.69 238.76 196.27 237.23 197.17 235.24 C 199.93 229.54 201.88 223.47 203.67 217.41 C 204.92 213.19 202.56 208.50 204.65 204.45 C 206.75 202.32 209.40 204.38 211.23 205.76 C 211.05 216.53 212.09 227.88 217.78 237.30 C 227.31 232.79 238.52 229.01 248.91 232.85 C 253.73 234.39 256.88 238.50 259.83 242.35 C 264.22 229.29 269.07 216.39 273.94 203.50 C 268.55 209.96 263.16 216.44 257.10 222.30 C 257.08 226.00 253.70 228.97 250.04 228.59 C 247.07 228.18 243.96 227.42 241.58 225.51 C 238.64 222.54 237.05 218.58 235.27 214.88 C 230.38 220.01 226.81 226.14 223.81 232.51 C 222.06 231.51 219.30 230.60 219.55 228.09 C 220.36 221.54 223.42 215.43 227.13 210.05 C 228.95 207.71 231.57 204.32 234.95 205.89 C 237.49 207.26 239.47 209.47 241.54 211.45 C 243.84 216.03 243.66 222.13 247.81 225.68 C 250.06 225.43 251.34 223.46 252.77 221.97 C 251.54 219.48 249.74 216.88 250.43 213.96 C 251.47 208.91 253.61 204.19 255.21 199.31 C 256.00 197.05 255.71 194.52 256.78 192.35 C 259.42 193.26 262.27 195.99 261.17 199.02 C 259.05 205.86 255.12 212.13 254.12 219.31 C 257.98 218.22 260.78 215.23 263.40 212.38 C 268.73 206.45 273.77 200.22 278.03 193.48 C 279.83 192.37 280.09 195.09 280.99 195.98 C 278.47 199.62 277.39 203.96 275.88 208.06 C 272.19 218.46 268.76 228.95 265.51 239.49 C 297.08 226.63 329.78 215.69 363.73 211.46 C 368.06 202.61 373.70 194.46 379.80 186.79 C 373.15 192.48 367.53 199.63 359.75 203.83 C 356.60 202.97 354.55 199.30 355.32 196.14 C 357.30 188.27 363.16 182.16 365.80 174.57 M 231.17 209.09 C 227.32 212.93 224.84 217.98 223.27 223.14 C 227.22 218.27 230.82 213.07 235.43 208.75 C 234.00 208.55 232.26 207.69 231.17 209.09 M 238.74 234.72 C 238.41 237.75 237.44 241.03 234.62 242.66 C 228.76 246.21 221.04 245.42 215.17 242.28 C 207.18 246.84 199.25 252.10 193.71 259.59 C 192.37 261.52 190.58 264.93 193.44 266.40 C 198.39 267.92 203.39 265.46 208.02 263.90 C 224.69 257.35 240.89 249.64 257.44 242.77 C 253.27 236.73 245.82 234.39 238.74 234.72 M 221.22 239.47 C 221.13 239.76 220.96 240.33 220.88 240.62 C 223.69 242.57 227.32 243.58 230.68 242.61 C 233.79 241.50 234.53 237.90 235.56 235.18 C 230.65 236.08 225.75 237.34 221.22 239.47 Z" />
<path fill="#3a3a3a" opacity="1.00" d=" M 337.52 182.76 C 338.89 182.27 340.26 181.82 341.65 181.39 C 341.03 185.49 338.50 188.86 335.60 191.68 C 337.39 191.99 339.59 191.51 341.03 192.90 C 342.35 194.06 342.00 196.01 342.35 197.55 C 340.44 196.08 338.73 193.87 336.07 193.96 C 332.86 193.96 329.66 194.34 326.45 194.44 C 325.04 197.57 323.27 201.14 324.49 204.62 C 326.16 207.61 330.21 206.67 332.87 205.80 C 340.51 202.92 347.60 197.90 352.17 191.06 C 354.17 188.34 353.75 184.85 353.84 181.69 C 357.48 184.30 356.10 188.86 354.37 192.18 C 350.58 199.45 344.29 205.30 337.10 209.15 C 333.29 211.17 328.22 212.53 324.45 209.71 C 320.02 206.39 319.27 200.03 321.26 195.14 C 320.24 195.38 319.23 195.63 318.23 195.87 C 319.48 201.94 315.75 207.52 311.47 211.42 C 307.29 215.11 301.82 218.40 296.02 217.26 C 291.37 216.46 288.89 211.81 286.92 208.01 C 284.60 211.47 282.72 215.20 280.42 218.67 C 277.79 219.50 276.50 215.33 277.20 213.27 C 279.87 204.95 284.28 197.29 287.35 189.11 C 288.05 187.06 287.91 184.85 288.17 182.73 C 290.67 183.91 293.43 186.42 292.37 189.48 C 289.88 196.25 286.45 202.65 283.19 209.09 C 289.45 201.06 297.16 192.49 307.87 191.22 C 311.32 190.51 314.53 192.11 317.05 194.33 C 318.80 193.99 320.56 193.66 322.31 193.34 C 326.06 188.51 330.53 181.81 337.52 182.76 M 327.95 192.60 C 332.30 192.85 335.11 189.28 337.06 185.88 C 333.65 187.56 330.57 189.84 327.95 192.60 M 290.89 203.06 C 298.23 199.24 306.22 196.98 314.18 194.84 C 305.65 190.59 296.50 196.81 290.89 203.06 M 289.35 206.43 C 292.18 210.92 298.49 210.84 302.85 208.83 C 308.05 206.37 313.36 202.57 314.84 196.69 C 306.00 198.86 297.21 201.75 289.35 206.43 Z" />
</g>
</svg>
